<?xml version="1.0" encoding="UTF-8"?>
<svg data-bbox="21 7.09 893.43 113.38" viewBox="0 0 935.43 127.56" xmlns="http://www.w3.org/2000/svg" data-type="color">
    <g>
        <path fill="#1e1e1e" d="m87.66 26.58-43.72 37.2 43.72 37.2v19.49L21 63.78 87.66 7.09v19.49z" data-color="1"/>
        <path fill="#1e1e1e" d="M390.33 14.29v12.68h-60.04V14.29h60.04z" data-color="1"/>
        <path fill="#1e1e1e" d="M390.33 59.45v12.68h-60.04V59.45h60.04z" data-color="1"/>
        <path fill="#1e1e1e" d="M390.33 102.37v12.68h-60.04v-12.68h60.04z" data-color="1"/>
        <path fill="#527bbc" d="M914.43 14.29v12.68h-60.04V14.29h60.04z" data-color="2"/>
        <path fill="#527bbc" d="M914.43 59.45v12.68h-60.04V59.45h60.04z" data-color="2"/>
        <path fill="#527bbc" d="M914.43 102.37v12.68h-60.04v-12.68h60.04z" data-color="2"/>
        <path fill="#1e1e1e" d="M425.3 102.37v12.68h-12.68v-12.68h12.68z" data-color="1"/>
        <path fill="#527bbc" d="M715.99 115.04H700.9l-51.06-80.79v80.79h-12.66V14.37h15.08l50.88 80.41V14.37h12.72v100.48l.13.19z" data-color="2"/>
        <path fill="#527bbc" d="m519.96 14.37-31.7 100.67h-18.6l-31.7-100.67h13.35l27.68 88.01 27.68-88.01h13.29z" data-color="2"/>
        <path fill="#527bbc" d="m530.71 115.04 31.7-100.67h18.6l31.7 100.67h-13.35l-27.68-88.01-27.67 88.01h-13.3z" data-color="2"/>
        <path d="M157.6 26.98c18.48 0 33.46 16.88 33.46 37.7 0 20.82-14.98 37.7-33.46 37.7s-33.46-16.88-33.46-37.7c0-20.83 14.98-37.7 33.46-37.7m0-12.69c-25.44 0-46.14 22.6-46.14 50.38s20.7 50.38 46.14 50.38 46.14-22.6 46.14-50.38-20.7-50.38-46.14-50.38z" fill="#1e1e1e" data-color="1"/>
        <path d="M830.84 77.33c-5.11 21.67-23.2 37.71-44.61 37.71-25.44 0-46.15-22.56-46.15-50.37 0-27.8 20.71-50.37 46.15-50.37 20.26 0 37.52 14.32 43.65 34.19h-13.42c-5.37-12.72-16.87-21.54-30.23-21.54-18.47 0-33.49 16.87-33.49 37.71s15.02 37.71 33.49 37.71c14.51 0 26.91-10.48 31.51-25.05h13.1z" fill="#527bbc" data-color="2"/>
        <path d="M270.82 14.82c-2.17-.32-4.41-.51-6.65-.51h-33.49v100.73h33.49c2.24 0 4.47-.19 6.65-.51 22.31-3.52 39.5-24.54 39.5-49.85 0-25.32-17.2-46.34-39.5-49.86zm-6.65 87.56H243.4V26.96h20.77c18.47 0 33.43 16.87 33.43 37.71s-14.96 37.71-33.43 37.71z" fill="#1e1e1e" data-color="1"/>
        <path d="M270.82 14.82c-2.17-.32-4.41-.51-6.65-.51h-33.49v100.73h33.49c2.24 0 4.47-.19 6.65-.51 22.31-3.52 39.5-24.54 39.5-49.85 0-25.32-17.2-46.34-39.5-49.86zm-6.65 87.56H243.4V26.96h20.77c18.47 0 33.43 16.87 33.43 37.71s-14.96 37.71-33.43 37.71z" fill="#1e1e1e" data-color="1"/>
    </g>
</svg>
