<?xml version="1.0" encoding="UTF-8"?><svg id="Layer_1" xmlns="http://www.w3.org/2000/svg" viewBox="0 0 96.85 31.56"><defs><style>.cls-1{fill:#fff;}.cls-2{fill:#b93a44;}</style></defs><polygon class="cls-2" points="0 14.07 22.3 14.07 22.3 10.82 0 10.82 0 14.07"/><polygon class="cls-2" points="0 8.79 22.3 8.79 22.3 5.54 0 5.54 0 8.79"/><polygon class="cls-2" points="0 3.51 22.3 3.51 22.3 .26 0 .26 0 3.51"/><polygon class="cls-1" points="2.55 28.18 1.6 28.18 1.6 31.47 .95 31.47 .95 28.18 0 28.18 0 27.62 2.64 27.62 2.55 28.18"/><polygon class="cls-1" points="3.12 31.47 3.12 27.62 5.24 27.62 5.15 28.14 3.72 28.14 3.72 29.18 4.94 29.18 4.94 29.74 3.72 29.74 3.72 30.91 5.28 30.91 5.28 31.47 3.12 31.47"/><path class="cls-1" d="m7.36,31.52c-.52,0-.91-.17-1.21-.56-.3-.35-.43-.78-.43-1.34,0-.48.04-.87.22-1.17.3-.56.82-.87,1.43-.87.39,0,.74.09.95.3l-.3.39c-.17-.13-.39-.22-.65-.22-.3,0-.61.17-.74.48-.17.22-.22.56-.22,1,0,.48.04.74.13.95.17.39.52.56.87.56.26,0,.48-.09.69-.26l.3.39c-.3.26-.65.35-1.04.35Z"/><polygon class="cls-1" points="11.04 31.47 11.04 29.7 9.74 29.7 9.74 31.47 9.09 31.47 9.09 27.62 9.74 27.62 9.74 29.18 11.04 29.18 11.04 27.62 11.69 27.62 11.69 31.47 11.04 31.47"/><path class="cls-1" d="m14.63,31.47l-.87-1.82c-.22-.43-.43-.91-.48-1.13h-.04c.04.35.04.74.04,1.08l.04,1.86h-.65v-3.85h.74l.91,1.9c.17.35.35.78.39.95h.04c-.04-.22-.09-.74-.09-1.08v-1.78h.61v3.85h-.65Z"/><path class="cls-1" d="m17.71,28.05c-.65,0-.87.52-.87,1.47s.26,1.52.91,1.52c.56,0,.87-.43.87-1.43s-.22-1.56-.91-1.56Zm.04,3.46c-1.08,0-1.65-.82-1.65-1.95,0-1.3.65-1.99,1.6-1.99,1.08,0,1.6.87,1.6,1.99s-.56,1.95-1.56,1.95Z"/><polygon class="cls-1" points="22.12 31.47 20.17 31.47 20.17 27.62 20.82 27.62 20.82 30.95 22.21 30.95 22.12 31.47"/><path class="cls-1" d="m24.03,28.05c-.65,0-.87.52-.87,1.47s.26,1.52.91,1.52c.56,0,.87-.43.87-1.43s-.22-1.56-.91-1.56Zm.04,3.46c-1.08,0-1.65-.82-1.65-1.95,0-1.3.65-1.99,1.6-1.99,1.08,0,1.6.87,1.6,1.99s-.56,1.95-1.56,1.95Z"/><path class="cls-1" d="m27.97,31.52c-.52,0-.95-.17-1.21-.56-.3-.35-.43-.78-.43-1.39,0-.78.22-1.34.69-1.69.3-.22.61-.3.95-.3.43,0,.82.13,1.17.39l-.35.43c-.26-.22-.52-.3-.82-.3-.69,0-.95.61-.95,1.52,0,.52.09.91.3,1.13.13.17.43.3.69.3.22,0,.39-.04.52-.13v-1h-.65l-.09-.52h1.39v1.82c-.35.17-.78.3-1.21.3Z"/><polygon class="cls-1" points="30.13 31.47 30.78 31.47 30.78 27.62 30.13 27.62 30.13 31.47"/><polygon class="cls-1" points="31.78 31.47 31.78 27.62 33.9 27.62 33.81 28.14 32.43 28.14 32.43 29.18 33.6 29.18 33.6 29.74 32.43 29.74 32.43 30.91 33.94 30.91 33.94 31.47 31.78 31.47"/><path class="cls-1" d="m36.58,31.47l-.87-1.82c-.22-.43-.39-.91-.48-1.13h-.04c.04.35.04.74.04,1.08l.04,1.86h-.65v-3.85h.74l.95,1.9c.17.35.3.78.39.95h0c0-.22-.04-.74-.04-1.08l-.04-1.78h.61v3.85h-.65Z"/><path class="cls-1" d="m38.57,31.56c-.26,0-.43-.22-.43-.48,0-.22.17-.43.43-.43.22,0,.43.22.43.43,0,.26-.22.48-.43.48Z"/><polygon class="cls-1" points="41.26 31.47 41.26 27.62 43.38 27.62 43.29 28.14 41.91 28.14 41.91 29.18 43.08 29.18 43.08 29.74 41.91 29.74 41.91 30.91 43.42 30.91 43.42 31.47 41.26 31.47"/><polygon class="cls-1" points="45.98 31.47 45.16 29.96 44.42 31.47 43.64 31.47 44.81 29.4 43.77 27.62 44.55 27.62 45.16 28.83 45.76 27.62 46.54 27.62 45.54 29.35 46.71 31.47 45.98 31.47"/><path class="cls-1" d="m48.88,28.36c-.09-.13-.26-.22-.52-.22h-.52v1.34h.52c.48,0,.69-.22.69-.65,0-.22-.04-.39-.17-.48Zm-.39,1.65h-.65v1.47h-.61v-3.85h1c.56,0,.78.09,1,.22.35.17.52.52.52.95,0,.74-.56,1.21-1.26,1.21Z"/><polygon class="cls-1" points="50.39 31.47 50.39 27.62 52.56 27.62 52.47 28.14 51.04 28.14 51.04 29.18 52.21 29.18 52.21 29.74 51.04 29.74 51.04 30.91 52.6 30.91 52.6 31.47 50.39 31.47"/><path class="cls-1" d="m54.25,28.14h-.35v1.21h.35c.35,0,.52-.04.61-.17.13-.09.17-.26.17-.43,0-.39-.22-.61-.78-.61Zm.91,3.33l-.35-.61c-.26-.48-.43-.74-.65-.95-.09-.04-.13-.09-.26-.09v1.65h-.61v-3.85h1.17c.87,0,1.26.52,1.26,1.13,0,.52-.39,1.04-.95,1.04.13.09.39.43.56.78l.56.91h-.74Z"/><polygon class="cls-1" points="58.66 28.18 57.71 28.18 57.71 31.47 57.06 31.47 57.06 28.18 56.11 28.18 56.11 27.62 58.75 27.62 58.66 28.18"/><polygon class="cls-1" points="59.18 31.47 59.18 27.62 61.35 27.62 61.26 28.14 59.83 28.14 59.83 29.18 61 29.18 61 29.74 59.83 29.74 59.83 30.91 61.39 30.91 61.39 31.47 59.18 31.47"/><path class="cls-1" d="m63.99,31.47l-.82-1.82c-.22-.43-.43-.91-.52-1.13h0c.04.35.04.74.04,1.08v1.86h-.61v-3.85h.69l.95,1.9c.17.35.35.78.39.95h0c0-.22-.04-.74-.04-1.08v-1.78h.61v3.85h-.69Z"/><path class="cls-1" d="m65.98,31.56c-.22,0-.43-.22-.43-.48,0-.22.22-.43.43-.43.26,0,.43.22.43.43,0,.26-.17.48-.43.48Z"/><polygon class="cls-1" points="70.65 31.47 68.66 31.47 68.66 27.62 69.31 27.62 69.31 30.95 70.74 30.95 70.65 31.47"/><path class="cls-1" d="m73.38,27.49c-.22,0-.39-.17-.39-.39s.17-.39.39-.39c.17,0,.35.17.35.39s-.17.39-.35.39Zm-.61.56c-.65,0-.87.52-.87,1.47s.22,1.52.87,1.52c.61,0,.87-.43.87-1.43s-.17-1.56-.87-1.56Zm-.56-.56c-.22,0-.39-.17-.39-.39s.17-.39.39-.39c.17,0,.35.17.35.39s-.17.39-.35.39Zm.61,4.03c-1.08,0-1.65-.82-1.65-1.95,0-1.3.65-1.99,1.6-1.99,1.08,0,1.6.87,1.6,1.99s-.56,1.95-1.56,1.95Z"/><path class="cls-1" d="m76.28,31.52c-.43,0-.87-.09-1.26-.3l.26-.52c.3.22.61.35,1,.35.48,0,.78-.26.78-.61,0-.3-.17-.48-.56-.61l-.43-.09c-.35-.13-.61-.26-.74-.48-.09-.17-.17-.35-.17-.56,0-.69.56-1.13,1.3-1.13.48,0,.91.13,1.21.35l-.26.48c-.35-.22-.61-.3-.91-.3-.39,0-.65.22-.65.52,0,.22.17.35.52.48l.48.13c.56.17.91.52.91,1.08,0,.65-.48,1.21-1.47,1.21Z"/><path class="cls-1" d="m79.88,31.52c-1,0-1.34-.52-1.34-1.13v-2.77h.65v2.6c0,.56.22.78.69.78s.69-.26.69-.78v-2.6h.65v2.77c0,.69-.52,1.13-1.34,1.13Z"/><path class="cls-1" d="m84.12,31.47l-.87-1.82c-.22-.43-.43-.91-.52-1.13h0c.04.35.04.74.04,1.08l.04,1.86h-.65v-3.85h.74l.91,1.9c.17.35.35.78.39.95h.04c-.04-.22-.09-.74-.09-1.08v-1.78h.61v3.85h-.65Z"/><path class="cls-1" d="m87.28,31.52c-.52,0-.95-.17-1.26-.56-.3-.35-.43-.78-.43-1.39,0-.78.26-1.34.74-1.69.26-.22.56-.3.95-.3.43,0,.82.13,1.13.39l-.3.43c-.26-.22-.52-.3-.82-.3-.69,0-.95.61-.95,1.52,0,.52.09.91.26,1.13.17.17.43.3.74.3.22,0,.35-.04.52-.13v-1h-.65l-.09-.52h1.39v1.82c-.35.17-.78.3-1.21.3Z"/><polygon class="cls-1" points="89.4 31.47 89.4 27.62 91.57 27.62 91.48 28.14 90.05 28.14 90.05 29.18 91.22 29.18 91.22 29.74 90.05 29.74 90.05 30.91 91.61 30.91 91.61 31.47 89.4 31.47"/><path class="cls-1" d="m94.21,31.47l-.82-1.82c-.22-.43-.43-.91-.52-1.13h0c.04.35.04.74.04,1.08v1.86h-.61v-3.85h.69l.95,1.9c.17.35.35.78.39.95h0c0-.22-.04-.74-.04-1.08v-1.78h.61v3.85h-.69Z"/><path class="cls-1" d="m96.2,31.56c-.22,0-.43-.22-.43-.48,0-.22.22-.43.43-.43.26,0,.43.22.43.43,0,.26-.17.48-.43.48Z"/><polygon class="cls-1" points="34.2 22.47 37.97 22.47 37.97 .22 34.2 .22 34.2 22.47"/><path class="cls-1" d="m64.42,8.14c0,2.25-1.34,3.12-4.55,3.12h-13.9V3.03h13.16c4.24,0,5.28.78,5.28,3.16v1.95Zm3.33.3v-1.73c0-4.29-1.17-6.49-7.58-6.49h-17.53v22.25h3.81v-8.44h13.64c2.68,0,3.81.48,3.81,3.29v5.15h3.59v-5.89c0-1.99-.74-3.25-2.38-3.98,1.39-.48,2.64-1.52,2.64-4.16Z"/><path class="cls-1" d="m80.66,0c-5.84,0-9.26,1.04-9.26,6.41,0,6.06,3.33,6.62,12.12,6.62h5.5c3.64,0,4.24.69,4.24,2.9,0,2.6-.78,3.55-5.02,3.55h-8.96c-3.55,0-4.24-1-4.24-2.68v-1.95h-3.59v2.03c0,5.11,4.2,5.8,8.36,5.8h8.01c3.38,0,9.05,0,9.05-6.06v-1.39c0-3.94-2.6-5.67-8.44-5.67h-8.57c-4.42,0-4.85-.82-4.85-2.94,0-3.03,1.43-3.38,7.1-3.38h3.07c7.49,0,7.49.56,7.53,3.59v.43h3.59v-1.21c0-4.42-2.51-6.06-9.39-6.06h-6.23Z"/></svg>